<mxfile host="drawio-plugin" modified="2021-07-17T15:25:32.820Z" agent="5.0 (Macintosh; Intel Mac OS X 11_4_0) AppleWebKit/537.36 (KHTML, like Gecko) Chrome/89.0.4389.114 Safari/537.36" etag="TxYgbws1bO9LXvFCOp-E" version="14.7.4" type="embed" pages="5"><diagram id="KaUvi9gJ8rcbDB0Ni-7u" name="thickness"><mxGraphModel dx="565" dy="580" grid="1" gridSize="10" guides="1" tooltips="1" connect="1" arrows="1" fold="1" page="1" pageScale="1" pageWidth="827" pageHeight="1169" math="0" shadow="0"><root><mxCell id="0"/><mxCell id="1" parent="0"/><mxCell id="sdcpT9LteWR0bbx47dF4-1" value="" style="rounded=1;whiteSpace=wrap;html=1;" parent="1" vertex="1"><mxGeometry x="400" y="160" width="160" height="70" as="geometry"/></mxCell><mxCell id="sdcpT9LteWR0bbx47dF4-2" value="participarter" style="shape=umlActor;verticalLabelPosition=bottom;verticalAlign=top;html=1;outlineConnect=0;" parent="1" vertex="1"><mxGeometry x="190" y="170" width="30" height="60" as="geometry"/></mxCell><mxCell id="frZTuWJHMiOV5DwWVnjp-6" style="edgeStyle=orthogonalEdgeStyle;rounded=0;orthogonalLoop=1;jettySize=auto;html=1;exitX=1;exitY=0;exitDx=0;exitDy=10.199996948242188;exitPerimeter=0;" parent="1" source="sdcpT9LteWR0bbx47dF4-8" target="sdcpT9LteWR0bbx47dF4-1" edge="1"><mxGeometry relative="1" as="geometry"/></mxCell><mxCell id="sdcpT9LteWR0bbx47dF4-8" value="cao" style="shape=cylinder3;whiteSpace=wrap;html=1;boundedLbl=1;backgroundOutline=1;size=5.399993896484375;fillColor=#ffe6cc;strokeColor=#d79b00;" parent="1" vertex="1"><mxGeometry x="280" y="185" width="40" height="30" as="geometry"/></mxCell><mxCell id="sdcpT9LteWR0bbx47dF4-9" value="Pool" style="text;html=1;strokeColor=none;fillColor=none;align=center;verticalAlign=middle;whiteSpace=wrap;rounded=0;" parent="1" vertex="1"><mxGeometry x="400" y="110" width="160" height="20" as="geometry"/></mxCell><mxCell id="frZTuWJHMiOV5DwWVnjp-1" value="authenticator" style="shape=umlActor;verticalLabelPosition=bottom;verticalAlign=top;html=1;outlineConnect=0;" parent="1" vertex="1"><mxGeometry x="640" y="170" width="30" height="60" as="geometry"/></mxCell><mxCell id="frZTuWJHMiOV5DwWVnjp-4" value="pay" style="text;html=1;strokeColor=none;fillColor=none;align=center;verticalAlign=middle;whiteSpace=wrap;rounded=0;" parent="1" vertex="1"><mxGeometry x="280" y="160" width="40" height="20" as="geometry"/></mxCell><mxCell id="kBSapW30gSMk75aRUMAB-5" style="edgeStyle=orthogonalEdgeStyle;rounded=0;orthogonalLoop=1;jettySize=auto;html=1;exitX=0.5;exitY=0;exitDx=0;exitDy=0;exitPerimeter=0;entryX=0;entryY=0.5;entryDx=0;entryDy=0;" parent="1" source="kBSapW30gSMk75aRUMAB-1" target="kBSapW30gSMk75aRUMAB-4" edge="1"><mxGeometry relative="1" as="geometry"/></mxCell><mxCell id="kBSapW30gSMk75aRUMAB-1" value="reader" style="shape=umlActor;verticalLabelPosition=bottom;verticalAlign=top;html=1;outlineConnect=0;" parent="1" vertex="1"><mxGeometry x="180" y="650" width="30" height="60" as="geometry"/></mxCell><mxCell id="kBSapW30gSMk75aRUMAB-9" style="edgeStyle=orthogonalEdgeStyle;rounded=0;orthogonalLoop=1;jettySize=auto;html=1;exitX=0.5;exitY=1;exitDx=0;exitDy=0;entryX=0.5;entryY=0;entryDx=0;entryDy=0;" parent="1" source="kBSapW30gSMk75aRUMAB-4" target="kBSapW30gSMk75aRUMAB-8" edge="1"><mxGeometry relative="1" as="geometry"/></mxCell><mxCell id="kBSapW30gSMk75aRUMAB-4" value="Pool" style="rounded=1;whiteSpace=wrap;html=1;" parent="1" vertex="1"><mxGeometry x="390" y="455" width="160" height="70" as="geometry"/></mxCell><mxCell id="kBSapW30gSMk75aRUMAB-6" value="cao" style="shape=cylinder3;whiteSpace=wrap;html=1;boundedLbl=1;backgroundOutline=1;size=5.399993896484375;fillColor=#ffe6cc;strokeColor=#d79b00;" parent="1" vertex="1"><mxGeometry x="280" y="450" width="40" height="30" as="geometry"/></mxCell><mxCell id="kBSapW30gSMk75aRUMAB-13" value="" style="edgeStyle=orthogonalEdgeStyle;rounded=0;orthogonalLoop=1;jettySize=auto;html=1;" parent="1" source="kBSapW30gSMk75aRUMAB-7" target="kBSapW30gSMk75aRUMAB-1" edge="1"><mxGeometry relative="1" as="geometry"><mxPoint x="655" y="780" as="targetPoint"/></mxGeometry></mxCell><mxCell id="kBSapW30gSMk75aRUMAB-7" value="author" style="shape=umlActor;verticalLabelPosition=bottom;verticalAlign=top;html=1;outlineConnect=0;" parent="1" vertex="1"><mxGeometry x="640" y="650" width="30" height="60" as="geometry"/></mxCell><mxCell id="kBSapW30gSMk75aRUMAB-11" style="edgeStyle=orthogonalEdgeStyle;rounded=0;orthogonalLoop=1;jettySize=auto;html=1;exitX=1;exitY=0.5;exitDx=0;exitDy=0;entryX=0.5;entryY=0;entryDx=0;entryDy=0;entryPerimeter=0;" parent="1" source="kBSapW30gSMk75aRUMAB-8" target="kBSapW30gSMk75aRUMAB-7" edge="1"><mxGeometry relative="1" as="geometry"/></mxCell><mxCell id="kBSapW30gSMk75aRUMAB-8" value="Pool" style="rounded=1;whiteSpace=wrap;html=1;dashed=1;" parent="1" vertex="1"><mxGeometry x="390" y="570" width="160" height="70" as="geometry"/></mxCell><mxCell id="kBSapW30gSMk75aRUMAB-10" value="interest" style="text;html=1;strokeColor=none;fillColor=none;align=center;verticalAlign=middle;whiteSpace=wrap;rounded=0;dashed=1;" parent="1" vertex="1"><mxGeometry x="490" y="540" width="40" height="20" as="geometry"/></mxCell></root></mxGraphModel></diagram><diagram id="_C4og6FC5RRTt6DI0S0T" name="congestion"><mxGraphModel dx="1550" dy="836" grid="1" gridSize="10" guides="1" tooltips="1" connect="1" arrows="1" fold="1" page="1" pageScale="1" pageWidth="827" pageHeight="1169" math="0" shadow="0">&#xa;      <root>&#xa;        <mxCell id="qGdtfTZDUUGYJ7AaQZYS-0"/>&#xa;        <mxCell id="qGdtfTZDUUGYJ7AaQZYS-1" parent="qGdtfTZDUUGYJ7AaQZYS-0"/>&#xa;      </root>&#xa;    </mxGraphModel></diagram><diagram id="gJRQCtPo4AIw1FqKwqCf" name="safe"><mxGraphModel dx="1550" dy="836" grid="1" gridSize="10" guides="1" tooltips="1" connect="1" arrows="1" fold="1" page="1" pageScale="1" pageWidth="827" pageHeight="1169" math="0" shadow="0">&#xa;      <root>&#xa;        <mxCell id="FJ6twPSHhK5aStqfXze0-0"/>&#xa;        <mxCell id="FJ6twPSHhK5aStqfXze0-1" parent="FJ6twPSHhK5aStqfXze0-0"/>&#xa;      </root>&#xa;    </mxGraphModel></diagram><diagram id="lruBl2Y6upcwW-A48Ffr" name="curv-finance"><mxGraphModel dx="1550" dy="836" grid="1" gridSize="10" guides="1" tooltips="1" connect="1" arrows="1" fold="1" page="1" pageScale="1" pageWidth="827" pageHeight="1169" math="0" shadow="0">&#xa;      <root>&#xa;        <mxCell id="y61diAh8C250WFkOMsXI-0"/>&#xa;        <mxCell id="y61diAh8C250WFkOMsXI-1" parent="y61diAh8C250WFkOMsXI-0"/>&#xa;        <mxCell id="y61diAh8C250WFkOMsXI-2" value="" style="group" vertex="1" connectable="0" parent="y61diAh8C250WFkOMsXI-1">&#xa;          <mxGeometry x="280" y="80" width="160" height="80" as="geometry"/>&#xa;        </mxCell>&#xa;        <mxCell id="y61diAh8C250WFkOMsXI-3" value="cao" style="shape=cylinder3;whiteSpace=wrap;html=1;boundedLbl=1;backgroundOutline=1;size=10.200042724609375;fillColor=#ffe6cc;strokeColor=#d79b00;" vertex="1" parent="y61diAh8C250WFkOMsXI-2">&#xa;          <mxGeometry y="50" width="60" height="30" as="geometry"/>&#xa;        </mxCell>&#xa;        <mxCell id="y61diAh8C250WFkOMsXI-4" value="eth" style="shape=cylinder3;whiteSpace=wrap;html=1;boundedLbl=1;backgroundOutline=1;size=10.200042724609375;fillColor=#ffe6cc;strokeColor=#d79b00;" vertex="1" parent="y61diAh8C250WFkOMsXI-2">&#xa;          <mxGeometry x="100" y="50" width="60" height="30" as="geometry"/>&#xa;        </mxCell>&#xa;        <mxCell id="y61diAh8C250WFkOMsXI-5" value="缺少curv代币公式" style="text;html=1;strokeColor=none;fillColor=none;align=center;verticalAlign=middle;whiteSpace=wrap;rounded=0;" vertex="1" parent="y61diAh8C250WFkOMsXI-2">&#xa;          <mxGeometry width="160" height="20" as="geometry"/>&#xa;        </mxCell>&#xa;      </root>&#xa;    </mxGraphModel></diagram><diagram id="Y0LMs-mYjwSuYZ_6WyyH" name="players"><mxGraphModel dx="565" dy="580" grid="1" gridSize="10" guides="1" tooltips="1" connect="1" arrows="1" fold="1" page="1" pageScale="1" pageWidth="827" pageHeight="1169" math="0" shadow="0"><root><mxCell id="YGztzhoLzOUFetVIobhB-0"/><mxCell id="YGztzhoLzOUFetVIobhB-1" parent="YGztzhoLzOUFetVIobhB-0"/><mxCell id="YGztzhoLzOUFetVIobhB-5" style="edgeStyle=orthogonalEdgeStyle;rounded=0;orthogonalLoop=1;jettySize=auto;html=1;exitX=1;exitY=0.25;exitDx=0;exitDy=0;entryX=0;entryY=0.25;entryDx=0;entryDy=0;dashed=1;strokeWidth=1;strokeColor=#B3B3B3;shadow=1;" parent="YGztzhoLzOUFetVIobhB-1" source="YGztzhoLzOUFetVIobhB-2" target="YGztzhoLzOUFetVIobhB-3" edge="1"><mxGeometry relative="1" as="geometry"/></mxCell><mxCell id="YGztzhoLzOUFetVIobhB-7" value="upgrade" style="edgeLabel;html=1;align=center;verticalAlign=middle;resizable=0;points=[];" parent="YGztzhoLzOUFetVIobhB-5" vertex="1" connectable="0"><mxGeometry x="-0.2308" relative="1" as="geometry"><mxPoint x="10" as="offset"/></mxGeometry></mxCell><mxCell id="YGztzhoLzOUFetVIobhB-2" value="考生" style="rounded=1;whiteSpace=wrap;html=1;fillColor=#ffe6cc;strokeColor=none;fontColor=#808080;shadow=1;" parent="YGztzhoLzOUFetVIobhB-1" vertex="1"><mxGeometry x="200" y="160" width="110" height="260" as="geometry"/></mxCell><mxCell id="YGztzhoLzOUFetVIobhB-6" style="edgeStyle=orthogonalEdgeStyle;rounded=0;orthogonalLoop=1;jettySize=auto;html=1;exitX=0;exitY=0.75;exitDx=0;exitDy=0;entryX=1;entryY=0.75;entryDx=0;entryDy=0;dashed=1;strokeWidth=1;strokeColor=#B3B3B3;shadow=1;" parent="YGztzhoLzOUFetVIobhB-1" source="YGztzhoLzOUFetVIobhB-3" target="YGztzhoLzOUFetVIobhB-2" edge="1"><mxGeometry relative="1" as="geometry"/></mxCell><mxCell id="YGztzhoLzOUFetVIobhB-9" value="downgrade" style="edgeLabel;html=1;align=center;verticalAlign=middle;resizable=0;points=[];" parent="YGztzhoLzOUFetVIobhB-6" vertex="1" connectable="0"><mxGeometry x="-0.1385" y="-1" relative="1" as="geometry"><mxPoint x="-14" as="offset"/></mxGeometry></mxCell><mxCell id="YGztzhoLzOUFetVIobhB-11" style="edgeStyle=orthogonalEdgeStyle;rounded=0;orthogonalLoop=1;jettySize=auto;html=1;exitX=1;exitY=0.25;exitDx=0;exitDy=0;entryX=0;entryY=0.25;entryDx=0;entryDy=0;dashed=1;strokeWidth=1;strokeColor=#B3B3B3;shadow=1;" parent="YGztzhoLzOUFetVIobhB-1" source="YGztzhoLzOUFetVIobhB-3" target="YGztzhoLzOUFetVIobhB-10" edge="1"><mxGeometry relative="1" as="geometry"/></mxCell><mxCell id="YGztzhoLzOUFetVIobhB-13" value="apply for" style="edgeLabel;html=1;align=center;verticalAlign=middle;resizable=0;points=[];" parent="YGztzhoLzOUFetVIobhB-11" vertex="1" connectable="0"><mxGeometry x="0.1333" y="-3" relative="1" as="geometry"><mxPoint x="-11" as="offset"/></mxGeometry></mxCell><mxCell id="YGztzhoLzOUFetVIobhB-3" value="会员" style="rounded=1;whiteSpace=wrap;html=1;fillColor=#d5e8d4;strokeColor=none;fontColor=#FFFFFF;shadow=1;" parent="YGztzhoLzOUFetVIobhB-1" vertex="1"><mxGeometry x="455" y="160" width="110" height="260" as="geometry"/></mxCell><mxCell id="YGztzhoLzOUFetVIobhB-12" style="edgeStyle=orthogonalEdgeStyle;rounded=0;orthogonalLoop=1;jettySize=auto;html=1;exitX=0;exitY=0.75;exitDx=0;exitDy=0;entryX=1;entryY=0.75;entryDx=0;entryDy=0;dashed=1;strokeWidth=1;strokeColor=#B3B3B3;shadow=1;" parent="YGztzhoLzOUFetVIobhB-1" source="YGztzhoLzOUFetVIobhB-10" target="YGztzhoLzOUFetVIobhB-3" edge="1"><mxGeometry relative="1" as="geometry"/></mxCell><mxCell id="YGztzhoLzOUFetVIobhB-14" value="back" style="edgeLabel;html=1;align=center;verticalAlign=middle;resizable=0;points=[];" parent="YGztzhoLzOUFetVIobhB-12" vertex="1" connectable="0"><mxGeometry x="-0.2222" y="-2" relative="1" as="geometry"><mxPoint x="-18" as="offset"/></mxGeometry></mxCell><mxCell id="YGztzhoLzOUFetVIobhB-17" style="edgeStyle=orthogonalEdgeStyle;rounded=0;orthogonalLoop=1;jettySize=auto;html=1;exitX=0.5;exitY=1;exitDx=0;exitDy=0;entryX=0.5;entryY=0;entryDx=0;entryDy=0;endArrow=none;endFill=0;dashed=1;strokeWidth=1;strokeColor=#B3B3B3;shadow=1;" parent="YGztzhoLzOUFetVIobhB-1" source="YGztzhoLzOUFetVIobhB-10" target="YGztzhoLzOUFetVIobhB-15" edge="1"><mxGeometry relative="1" as="geometry"/></mxCell><mxCell id="YGztzhoLzOUFetVIobhB-18" style="edgeStyle=orthogonalEdgeStyle;rounded=0;orthogonalLoop=1;jettySize=auto;html=1;exitX=0.5;exitY=1;exitDx=0;exitDy=0;entryX=0.5;entryY=0;entryDx=0;entryDy=0;endArrow=none;endFill=0;dashed=1;strokeWidth=1;strokeColor=#B3B3B3;shadow=1;" parent="YGztzhoLzOUFetVIobhB-1" source="YGztzhoLzOUFetVIobhB-10" target="YGztzhoLzOUFetVIobhB-16" edge="1"><mxGeometry relative="1" as="geometry"/></mxCell><mxCell id="YGztzhoLzOUFetVIobhB-10" value="贡献者" style="rounded=1;whiteSpace=wrap;html=1;fillColor=#66B2FF;strokeColor=none;fontColor=#FFFFFF;fontStyle=1;shadow=1;" parent="YGztzhoLzOUFetVIobhB-1" vertex="1"><mxGeometry x="710" y="160" width="110" height="260" as="geometry"/></mxCell><mxCell id="YGztzhoLzOUFetVIobhB-15" value="审核员" style="rounded=1;whiteSpace=wrap;html=1;fillColor=#99CCFF;strokeColor=none;fontColor=#FFFFFF;shadow=1;" parent="YGztzhoLzOUFetVIobhB-1" vertex="1"><mxGeometry x="630" y="540" width="110" height="180" as="geometry"/></mxCell><mxCell id="YGztzhoLzOUFetVIobhB-16" value="提供者" style="rounded=1;whiteSpace=wrap;html=1;strokeColor=none;fontColor=#FFFFFF;fillColor=#99CCFF;shadow=1;" parent="YGztzhoLzOUFetVIobhB-1" vertex="1"><mxGeometry x="810" y="540" width="110" height="180" as="geometry"/></mxCell></root></mxGraphModel></diagram></mxfile>